<svg width="76" height="113" viewBox="0 0 76 113" fill="none" xmlns="http://www.w3.org/2000/svg">
<path fill-rule="evenodd" clip-rule="evenodd" d="M63.4105 18.5532C63.4105 18.5532 64.972 20.4516 64.9742 22.6877C64.9753 24.0038 64.5141 24.715 63.8639 25.7546C60.7866 30.6756 55.6457 36.719 50.2927 40.9524C46.2022 44.1876 41.4359 47.1574 35.9995 46.07C35.9995 46.07 40.9463 52.845 46.8115 56.9259C48.1304 57.8435 49.6349 58.9652 51.2113 58.9878C52.7194 59.0095 55.3486 57.0762 56.5775 56.2558C58.2991 55.1063 60.3761 53.5798 62.4574 51.6587C65.4628 48.8844 72.7972 40.6246 73.3647 36.8379C73.6275 35.0846 73.259 33.073 72.1289 30.1818C70.5835 26.2284 67.7398 21.2401 63.4105 18.5532V18.5532ZM48.1415 54.2801C48.7552 54.2801 49.2527 54.7776 49.2527 55.3913C49.2527 56.005 48.7552 56.5025 48.1415 56.5025C47.5278 56.5025 47.0303 56.005 47.0303 55.3913C47.0303 54.7776 47.5278 54.2801 48.1415 54.2801ZM45.9719 52.1898C46.5856 52.1898 47.0831 52.6873 47.0831 53.301C47.0831 53.9147 46.5856 54.4122 45.9719 54.4122C45.3582 54.4122 44.8607 53.9147 44.8607 53.301C44.8607 52.6873 45.3582 52.1898 45.9719 52.1898ZM43.8023 50.0995C44.416 50.0995 44.9135 50.597 44.9135 51.2107C44.9135 51.8244 44.416 52.3219 43.8023 52.3219C43.1886 52.3219 42.6911 51.8244 42.6911 51.2107C42.6911 50.597 43.1886 50.0995 43.8023 50.0995V50.0995Z" fill="#F6B050"/>
<path fill-rule="evenodd" clip-rule="evenodd" d="M54.9166 60.5005C54.9166 60.5005 52.9965 62.0352 50.7606 62.0061C49.4446 61.9887 48.74 61.5176 47.7096 60.8529C42.8322 57.7069 36.8614 52.4819 32.7035 47.0701C29.5259 42.9346 26.6232 38.1272 27.7867 32.7065C27.7867 32.7065 20.943 37.5579 16.7803 43.3654C15.8443 44.6713 14.7017 46.1599 14.657 47.7358C14.6141 49.2435 16.5104 51.8995 17.3135 53.1398C18.4388 54.8773 19.936 56.9755 21.8277 59.0835C24.257 61.7902 32.0422 68.7987 35.2441 69.9308C37.2987 70.6574 39.5414 70.4461 43.167 69.0551C47.1301 67.5345 52.1693 64.7917 54.9166 60.5005V60.5005ZM19.4072 44.7324C19.3985 45.3459 18.8942 45.8365 18.2806 45.8278C17.6669 45.8192 17.1764 45.3147 17.1851 44.7012C17.1937 44.0875 17.6981 43.597 18.3118 43.6056C18.9253 43.6143 19.4158 44.1186 19.4072 44.7324ZM21.5278 42.5922C21.5192 43.2058 21.0147 43.6963 20.4011 43.6877C19.7875 43.6791 19.297 43.1747 19.3056 42.5611C19.3141 41.9475 19.8186 41.4569 20.4322 41.4655C21.0458 41.4741 21.5363 41.9786 21.5278 42.5922V42.5922ZM23.6482 40.4522C23.6396 41.0657 23.1351 41.5563 22.5216 41.5477C21.9079 41.539 21.4175 41.0346 21.426 40.421C21.4346 39.8073 21.9391 39.3168 22.5527 39.3255C23.1664 39.3341 23.6568 39.8384 23.6482 40.4522V40.4522Z" fill="#068A59"/>
<path fill-rule="evenodd" clip-rule="evenodd" d="M12.5604 51.9237C12.5604 51.9237 11.0304 49.9998 11.065 47.764C11.0856 46.448 11.5585 45.7445 12.2258 44.7158C15.3838 39.8462 20.6236 33.8884 26.0457 29.7438C30.189 26.5765 35.0036 23.6857 40.4213 24.8626C40.4213 24.8626 35.5869 18.0069 29.7898 13.8299C28.4862 12.8907 27.0004 11.7443 25.4246 11.6957C23.917 11.6492 21.2563 13.5389 20.0141 14.3389C18.2737 15.4598 16.1719 16.9519 14.0592 18.8384C11.2592 21.3389 5.59047 27.6523 3.77967 30.9156C2.41307 33.3787 2.35507 35.7421 4.03487 40.1529C5.54557 44.1198 8.27587 49.1658 12.5604 51.9237V51.9237ZM28.4162 16.4534C27.8028 16.4432 27.3135 15.9376 27.3236 15.3241C27.3337 14.7104 27.8395 14.2211 28.4529 14.2314C29.0667 14.2415 29.5559 14.747 29.5457 15.3608C29.5355 15.9742 29.03 16.4635 28.4162 16.4534ZM30.5512 18.5792C29.9376 18.5692 29.4483 18.0634 29.4585 17.4499C29.4686 16.8362 29.9742 16.3471 30.5878 16.3572C31.2013 16.3672 31.6907 16.8729 31.6806 17.4865C31.6705 18.1 31.1647 18.5892 30.5512 18.5792V18.5792ZM32.686 20.7049C32.0724 20.6948 31.5831 20.1891 31.5932 19.5756C31.6035 18.962 32.109 18.4729 32.7226 18.4828C33.3363 18.4929 33.8255 18.9987 33.8153 19.6122C33.8052 20.226 33.2997 20.7151 32.686 20.7049Z" fill="#B13904"/>
<path fill-rule="evenodd" clip-rule="evenodd" d="M21.3789 10.0162C21.3789 10.0162 23.2832 8.46185 25.5193 8.46805C26.8354 8.47185 27.5448 8.93575 28.582 9.58985C33.4914 12.6857 39.5154 17.8493 43.7286 23.2182C46.9484 27.3209 49.9002 32.0983 48.7924 37.5306C48.7924 37.5306 55.5859 32.6092 59.6889 26.7595C60.6114 25.4441 61.7388 23.9438 61.7673 22.3675C61.7947 20.8595 59.8713 18.223 59.0555 16.9911C57.9125 15.2651 56.3939 13.1824 54.4806 11.0939C51.8698 8.24415 45.9936 3.13665 42.6332 1.17095C40.0164 -0.359449 37.6408 -0.477849 33.0403 1.34155C29.093 2.90265 24.0821 5.69695 21.3789 10.0162V10.0162ZM57.0481 25.4195C57.0505 24.8059 57.5497 24.3101 58.1634 24.3125C58.7771 24.3149 59.2728 24.8143 59.2704 25.4279C59.2681 26.0417 58.7688 26.5373 58.155 26.5349C57.5415 26.5325 57.0459 26.0333 57.0481 25.4195ZM54.9495 27.5812C54.9519 26.9675 55.4513 26.4719 56.065 26.4742C56.6787 26.4765 57.1742 26.976 57.172 27.5896C57.1698 28.2033 56.6703 28.6989 56.0567 28.6965C55.443 28.6943 54.9474 28.1948 54.9495 27.5812ZM52.8513 29.743C52.8535 29.1294 53.353 28.6336 53.9666 28.6359C54.5803 28.6384 55.0758 29.1376 55.0736 29.7511C55.0714 30.365 54.5719 30.8607 53.9581 30.8583C53.3444 30.856 52.849 30.3568 52.8513 29.743V29.743Z" fill="#0098D9"/>
<path d="M0.524112 92.2562L1.56664 92.1651C1.61601 92.5828 1.72995 92.9266 1.90845 93.1962C2.09075 93.4621 2.3718 93.6785 2.75159 93.8457C3.13138 94.009 3.55865 94.0906 4.03339 94.0906C4.45496 94.0906 4.82715 94.028 5.14997 93.9026C5.4728 93.7773 5.71207 93.6064 5.86778 93.3899C6.02729 93.1696 6.10705 92.9304 6.10705 92.6721C6.10705 92.41 6.03109 92.1822 5.87917 91.9885C5.72726 91.791 5.4766 91.6258 5.12719 91.4928C4.90311 91.4055 4.40748 91.2707 3.6403 91.0884C2.87312 90.9023 2.33572 90.7276 2.02809 90.5643C1.62931 90.3554 1.33117 90.0971 1.13368 89.7895C0.939984 89.478 0.843137 89.1305 0.843137 88.747C0.843137 88.3254 0.962772 87.9323 1.20204 87.5677C1.44131 87.1993 1.79072 86.9202 2.25027 86.7303C2.70981 86.5404 3.22063 86.4454 3.78272 86.4454C4.40179 86.4454 4.94679 86.5461 5.41773 86.7473C5.89247 86.9448 6.25707 87.2373 6.51153 87.6247C6.76599 88.0121 6.90271 88.4507 6.9217 88.9406L5.86208 89.0204C5.80512 88.4925 5.61142 88.0937 5.281 87.8241C4.95438 87.5544 4.47015 87.4196 3.8283 87.4196C3.15987 87.4196 2.67183 87.543 2.3642 87.7899C2.06037 88.0329 1.90845 88.3273 1.90845 88.6729C1.90845 88.9729 2.01669 89.2198 2.23317 89.4135C2.44586 89.6072 3.00035 89.8066 3.89666 90.0117C4.79677 90.2129 5.41393 90.3895 5.74815 90.5415C6.23428 90.7655 6.59318 91.0504 6.82486 91.396C7.05653 91.7378 7.17237 92.1328 7.17237 92.5809C7.17237 93.0253 7.04513 93.445 6.79067 93.84C6.53621 94.2311 6.16972 94.5369 5.69118 94.7572C5.21644 94.9736 4.68093 95.0819 4.08466 95.0819C3.32887 95.0819 2.69462 94.9717 2.1819 94.7515C1.67298 94.5312 1.2723 94.2008 0.979862 93.7602C0.691221 93.3158 0.539304 92.8145 0.524112 92.2562ZM8.87003 94.9395V86.5878H9.97523V94.9395H8.87003ZM11.9179 94.9395V86.5878H13.0515L17.4381 93.1449V86.5878H18.4978V94.9395H17.3641L12.9775 88.3767V94.9395H11.9179ZM19.4434 94.9395L22.6508 86.5878H23.8414L27.2595 94.9395H26.0005L25.0264 92.41H21.5342L20.617 94.9395H19.4434ZM21.8532 91.5099H24.6846L23.8129 89.197C23.5471 88.4944 23.3496 87.9171 23.2205 87.4652C23.1141 88.0007 22.9641 88.5324 22.7704 89.0603L21.8532 91.5099ZM28.1597 94.9395V86.5878H31.8626C32.607 86.5878 33.1729 86.6638 33.5603 86.8157C33.9477 86.9638 34.2572 87.2278 34.4889 87.6076C34.7206 87.9874 34.8364 88.407 34.8364 88.8666C34.8364 89.4591 34.6446 89.9585 34.261 90.3649C33.8774 90.7712 33.2849 91.0295 32.4836 91.1396C32.776 91.2802 32.9982 91.4188 33.1501 91.5555C33.4729 91.8517 33.7787 92.222 34.0673 92.6664L35.52 94.9395H34.13L33.0248 93.2019C32.702 92.7006 32.4361 92.317 32.2272 92.0511C32.0183 91.7853 31.8303 91.5992 31.6632 91.4928C31.4999 91.3865 31.3328 91.3124 31.1619 91.2707C31.0366 91.2441 30.8315 91.2308 30.5466 91.2308H29.2648V94.9395H28.1597ZM29.2648 90.2737H31.6404C32.1456 90.2737 32.5405 90.2224 32.8254 90.1199C33.1102 90.0136 33.3267 89.8464 33.4748 89.6186C33.623 89.3869 33.697 89.1362 33.697 88.8666C33.697 88.4716 33.5527 88.1469 33.2641 87.8924C32.9792 87.638 32.5273 87.5107 31.9082 87.5107H29.2648V90.2737Z" fill="#342D2C"/>
<path d="M39.2878 94.9395V86.5878H42.4382C42.9927 86.5878 43.4161 86.6144 43.7086 86.6676C44.1188 86.736 44.4625 86.867 44.7397 87.0607C45.017 87.2506 45.2391 87.5183 45.4062 87.8639C45.5772 88.2095 45.6626 88.5893 45.6626 89.0033C45.6626 89.7135 45.4366 90.3155 44.9847 90.8092C44.5327 91.2992 43.7162 91.5441 42.535 91.5441H40.393V94.9395H39.2878ZM40.393 90.5586H42.5521C43.2661 90.5586 43.7731 90.4256 44.0732 90.1598C44.3732 89.8939 44.5232 89.5198 44.5232 89.0375C44.5232 88.6881 44.434 88.3899 44.2555 88.1431C44.0808 87.8924 43.8491 87.7272 43.5605 87.6475C43.3744 87.5981 43.0306 87.5734 42.5293 87.5734H40.393V90.5586ZM47.0868 94.9395V86.5878H50.7898C51.5342 86.5878 52.1001 86.6638 52.4875 86.8157C52.8748 86.9638 53.1844 87.2278 53.4161 87.6076C53.6477 87.9874 53.7636 88.407 53.7636 88.8666C53.7636 89.4591 53.5718 89.9585 53.1882 90.3649C52.8046 90.7712 52.2121 91.0295 51.4108 91.1396C51.7032 91.2802 51.9254 91.4188 52.0773 91.5555C52.4001 91.8517 52.7058 92.222 52.9945 92.6664L54.4472 94.9395H53.0571L51.952 93.2019C51.6291 92.7006 51.3633 92.317 51.1544 92.0511C50.9455 91.7853 50.7575 91.5992 50.5904 91.4928C50.4271 91.3865 50.26 91.3124 50.0891 91.2707C49.9637 91.2441 49.7587 91.2308 49.4738 91.2308H48.192V94.9395H47.0868ZM48.192 90.2737H50.5676C51.0727 90.2737 51.4677 90.2224 51.7526 90.1199C52.0374 90.0136 52.2539 89.8464 52.402 89.6186C52.5501 89.3869 52.6242 89.1362 52.6242 88.8666C52.6242 88.4716 52.4799 88.1469 52.1912 87.8924C51.9064 87.638 51.4544 87.5107 50.8354 87.5107H48.192V90.2737ZM55.6891 94.9395V86.5878H56.7943V94.9395H55.6891ZM58.7141 94.9395V86.5878H60.3776L62.3544 92.5012C62.5367 93.0519 62.6697 93.464 62.7532 93.7374C62.8482 93.4336 62.9963 92.9873 63.1976 92.3986L65.1972 86.5878H66.6841V94.9395H65.6188V87.9494L63.1919 94.9395H62.1949L59.7795 87.8298V94.9395H58.7141ZM67.55 94.9395L70.7573 86.5878H71.948L75.3661 94.9395H74.1071L73.1329 92.41H69.6407L68.7236 94.9395H67.55ZM69.9598 91.5099H72.7911L71.9195 89.197C71.6536 88.4944 71.4562 87.9171 71.327 87.4652C71.2207 88.0007 71.0707 88.5324 70.877 89.0603L69.9598 91.5099Z" fill="#38302F"/>
<path d="M7.14328 110.127V101.775H8.24847V110.127H7.14328ZM10.1911 110.127V101.775H11.3248L15.7114 108.332V101.775H16.771V110.127H15.6373L11.2507 103.564V110.127H10.1911ZM18.6339 110.127V101.775H21.5108C22.1602 101.775 22.6559 101.815 22.9977 101.895C23.4762 102.005 23.8845 102.204 24.2225 102.493C24.6631 102.865 24.9916 103.342 25.2081 103.923C25.4283 104.5 25.5385 105.161 25.5385 105.906C25.5385 106.54 25.4644 107.102 25.3163 107.592C25.1682 108.082 24.9783 108.488 24.7466 108.811C24.5149 109.13 24.2605 109.383 23.9832 109.569C23.7098 109.751 23.3775 109.89 22.9863 109.985C22.5989 110.079 22.1526 110.127 21.6475 110.127H18.6339ZM19.7391 109.141H21.5222C22.0729 109.141 22.504 109.09 22.8154 108.988C23.1306 108.885 23.3813 108.741 23.5674 108.555C23.8294 108.293 24.0326 107.941 24.1769 107.501C24.3251 107.056 24.3991 106.519 24.3991 105.888C24.3991 105.015 24.2548 104.345 23.9661 103.877C23.6813 103.407 23.3338 103.091 22.9236 102.932C22.6274 102.818 22.1507 102.761 21.4937 102.761H19.7391V109.141ZM26.7291 106.059C26.7291 104.673 27.1013 103.589 27.8457 102.806C28.5901 102.02 29.551 101.627 30.7283 101.627C31.4993 101.627 32.1943 101.811 32.8134 102.18C33.4325 102.548 33.9034 103.063 34.2262 103.724C34.5528 104.381 34.7162 105.127 34.7162 105.963C34.7162 106.809 34.5452 107.567 34.2034 108.236C33.8616 108.904 33.3774 109.411 32.7507 109.757C32.1241 110.098 31.448 110.269 30.7226 110.269C29.9365 110.269 29.2339 110.079 28.6148 109.7C27.9957 109.32 27.5267 108.801 27.2077 108.144C26.8886 107.487 26.7291 106.792 26.7291 106.059ZM27.8685 106.076C27.8685 107.083 28.1382 107.877 28.6775 108.458C29.2206 109.035 29.9004 109.324 30.7169 109.324C31.5487 109.324 32.2323 109.031 32.7678 108.446C33.3071 107.861 33.5768 107.032 33.5768 105.957C33.5768 105.277 33.4609 104.685 33.2293 104.179C33.0014 103.67 32.6653 103.277 32.2209 103C31.7804 102.719 31.2847 102.579 30.734 102.579C29.9517 102.579 29.2775 102.848 28.7116 103.388C28.1496 103.923 27.8685 104.819 27.8685 106.076ZM36.1347 110.127V101.775H37.2684L41.6549 108.332V101.775H42.7146V110.127H41.5809L37.1943 103.564V110.127H36.1347ZM44.6002 110.127V101.775H50.6389V102.761H45.7054V105.319H50.3256V106.299H45.7054V109.141H50.8326V110.127H44.6002ZM51.9834 107.444L53.0259 107.353C53.0753 107.77 53.1892 108.114 53.3677 108.384C53.55 108.65 53.8311 108.866 54.2109 109.033C54.5906 109.196 55.0179 109.278 55.4927 109.278C55.9142 109.278 56.2864 109.215 56.6092 109.09C56.9321 108.965 57.1713 108.794 57.327 108.577C57.4866 108.357 57.5663 108.118 57.5663 107.86C57.5663 107.598 57.4904 107.37 57.3384 107.176C57.1865 106.978 56.9359 106.813 56.5865 106.68C56.3624 106.593 55.8667 106.458 55.0996 106.276C54.3324 106.09 53.795 105.915 53.4874 105.752C53.0886 105.543 52.7904 105.285 52.5929 104.977C52.3993 104.666 52.3024 104.318 52.3024 103.934C52.3024 103.513 52.422 103.12 52.6613 102.755C52.9006 102.387 53.25 102.108 53.7095 101.918C54.1691 101.728 54.6799 101.633 55.242 101.633C55.8611 101.633 56.4061 101.734 56.877 101.935C57.3517 102.132 57.7163 102.425 57.9708 102.812C58.2253 103.2 58.362 103.638 58.381 104.128L57.3214 104.208C57.2644 103.68 57.0707 103.281 56.7403 103.012C56.4136 102.742 55.9294 102.607 55.2876 102.607C54.6191 102.607 54.1311 102.731 53.8235 102.977C53.5196 103.22 53.3677 103.515 53.3677 103.86C53.3677 104.16 53.476 104.407 53.6924 104.601C53.9051 104.795 54.4596 104.994 55.3559 105.199C56.256 105.4 56.8732 105.577 57.2074 105.729C57.6935 105.953 58.0524 106.238 58.2841 106.583C58.5158 106.925 58.6316 107.32 58.6316 107.768C58.6316 108.213 58.5044 108.632 58.2499 109.027C57.9955 109.419 57.629 109.724 57.1504 109.945C56.6757 110.161 56.1402 110.269 55.5439 110.269C54.7881 110.269 54.1539 110.159 53.6412 109.939C53.1322 109.719 52.7316 109.388 52.4391 108.948C52.1505 108.503 51.9986 108.002 51.9834 107.444ZM60.3293 110.127V101.775H61.4345V110.127H60.3293ZM62.4713 110.127L65.6787 101.775H66.8693L70.2874 110.127H69.0284L68.0543 107.598H64.5621L63.6449 110.127H62.4713ZM64.8811 106.697H67.7124L66.8408 104.385C66.575 103.682 66.3775 103.105 66.2484 102.653C66.142 103.188 65.992 103.72 65.7983 104.248L64.8811 106.697Z" fill="#332C2B"/>
</svg>
